<svg width="16" height="16" viewBox="0 0 16 16" fill="none" xmlns="http://www.w3.org/2000/svg">
<g opacity="0.5">
<path d="M2.66602 4.66667C2.66602 4.29848 2.96449 4 3.33268 4H3.99935C4.36754 4 4.66602 4.29848 4.66602 4.66667C4.66602 5.03486 4.36754 5.33333 3.99935 5.33333H3.33268C2.96449 5.33333 2.66602 5.03486 2.66602 4.66667ZM5.99935 4.66667C5.99935 4.29848 6.29783 4 6.66602 4H12.666C13.0342 4 13.3327 4.29848 13.3327 4.66667C13.3327 5.03486 13.0342 5.33333 12.666 5.33333H6.66602C6.29783 5.33333 5.99935 5.03486 5.99935 4.66667ZM2.66602 8C2.66602 7.63181 2.96449 7.33333 3.33268 7.33333H3.99935C4.36754 7.33333 4.66602 7.63181 4.66602 8C4.66602 8.36819 4.36754 8.66667 3.99935 8.66667H3.33268C2.96449 8.66667 2.66602 8.36819 2.66602 8ZM5.99935 8C5.99935 7.63181 6.29783 7.33333 6.66602 7.33333H12.666C13.0342 7.33333 13.3327 7.63181 13.3327 8C13.3327 8.36819 13.0342 8.66667 12.666 8.66667H6.66602C6.29783 8.66667 5.99935 8.36819 5.99935 8ZM2.66602 11.3333C2.66602 10.9651 2.96449 10.6667 3.33268 10.6667H3.99935C4.36754 10.6667 4.66602 10.9651 4.66602 11.3333C4.66602 11.7015 4.36754 12 3.99935 12H3.33268C2.96449 12 2.66602 11.7015 2.66602 11.3333ZM5.99935 11.3333C5.99935 10.9651 6.29783 10.6667 6.66602 10.6667H12.666C13.0342 10.6667 13.3327 10.9651 13.3327 11.3333C13.3327 11.7015 13.0342 12 12.666 12H6.66602C6.29783 12 5.99935 11.7015 5.99935 11.3333Z" fill="white"/>
</g>
</svg>
